<?xml version="1.0" standalone="no"?>
<!DOCTYPE svg PUBLIC "-//W3C//DTD SVG 20010904//EN"
 "http://www.w3.org/TR/2001/REC-SVG-20010904/DTD/svg10.dtd">
<svg version="1.0" xmlns="http://www.w3.org/2000/svg"
 width="1746.000000pt" height="1661.000000pt" viewBox="0 0 1746.000000 1661.000000"
 preserveAspectRatio="xMidYMid meet">

<g transform="translate(0.000000,1661.000000) scale(0.100000,-0.100000)"
fill="#fff5e3" stroke="none">
<path d="M8638 16546 c29 -14 79 -33 110 -41 31 -9 79 -23 105 -32 56 -18 125
-20 257 -9 76 7 113 5 179 -8 61 -12 121 -16 220 -14 129 3 138 2 179 -21 51
-30 53 -41 7 -41 -19 0 -35 -5 -35 -11 0 -12 93 -7 180 8 l45 9 -75 26 c-174
63 -306 86 -530 94 -123 4 -194 12 -280 31 -86 19 -153 26 -265 29 l-150 4 53
-24z"/>
<path d="M7850 16478 c-43 -6 -304 -11 -610 -12 -480 -1 -543 -3 -615 -19
-100 -23 -186 -64 -256 -120 l-54 -44 -80 8 c-238 24 -530 -53 -895 -236 -158
-79 -464 -201 -554 -220 -161 -35 -356 -132 -463 -230 -72 -66 -29 -59 92 17
142 87 307 162 390 178 48 9 102 30 170 66 55 29 156 71 225 94 112 37 137 42
239 45 62 2 110 0 105 -4 -5 -5 -27 -20 -49 -35 -22 -14 -36 -26 -32 -26 4 0
54 14 112 31 58 17 109 29 115 27 22 -7 -177 -102 -283 -134 -130 -40 -149
-52 -199 -125 l-37 -54 29 -3 c30 -3 90 22 90 38 0 41 313 160 423 160 71 0
71 -12 1 -57 -27 -18 -57 -39 -66 -47 -9 -8 -124 -45 -254 -82 -202 -56 -284
-85 -541 -194 -218 -92 -318 -139 -357 -169 -67 -52 -189 -115 -261 -137 -35
-10 -83 -36 -128 -70 -95 -71 -175 -113 -261 -135 -39 -10 -73 -24 -75 -30 -2
-7 -20 -30 -40 -52 -37 -42 -100 -76 -138 -77 -16 0 -30 -13 -49 -45 -19 -33
-32 -45 -49 -45 -25 0 -58 -36 -49 -52 3 -5 13 -3 22 4 10 7 4 -3 -13 -21 -42
-46 -123 -104 -137 -98 -7 2 -26 -8 -43 -23 -32 -30 -145 -60 -229 -60 -37 -1
-44 -5 -79 -50 -31 -40 -35 -51 -23 -56 11 -4 -4 -28 -65 -99 -88 -103 -124
-136 -178 -165 -35 -19 -193 -198 -289 -329 -30 -41 -89 -99 -162 -158 -178
-143 -213 -185 -304 -363 -100 -196 -152 -275 -234 -356 -104 -103 -258 -169
-302 -129 -19 17 -20 16 -31 -11 -43 -102 -67 -149 -118 -229 -32 -49 -82
-134 -111 -189 -44 -82 -54 -110 -60 -170 -5 -56 -18 -97 -57 -182 -51 -110
-54 -138 -13 -127 16 4 24 -4 38 -38 l19 -44 59 81 c32 45 73 102 91 127 17
25 58 64 92 86 33 23 72 58 87 79 15 20 54 64 85 97 32 33 80 100 108 150 47
85 51 90 80 87 27 -2 34 3 48 33 15 32 20 35 60 35 l43 0 0 -55 c0 -30 4 -55
8 -55 14 0 60 53 70 80 5 14 6 37 2 52 -7 21 -1 37 25 78 18 28 36 64 40 78
10 42 51 89 103 119 67 39 178 140 213 195 31 47 31 47 12 78 -16 28 -16 33
-3 58 13 22 24 28 60 30 42 3 48 7 89 63 42 58 115 109 156 109 9 0 -30 -52
-93 -122 -522 -593 -980 -1301 -1301 -2011 -90 -197 -195 -461 -261 -654 l-53
-153 -40 0 c-59 0 -122 54 -142 123 -8 29 -19 59 -25 67 -6 9 -5 19 2 28 7 7
14 62 17 120 5 87 10 114 29 143 49 80 18 171 -66 190 -53 12 -157 -10 -218
-46 -60 -35 -74 -71 -71 -191 l2 -99 -43 -77 c-103 -188 -120 -226 -132 -288
-6 -35 -20 -77 -31 -91 -18 -25 -19 -52 -20 -467 -1 -508 -5 -483 88 -528 32
-15 102 -59 156 -97 l99 -69 -7 -77 c-6 -69 -5 -79 15 -104 19 -23 28 -27 76
-27 30 0 54 -2 54 -5 0 -2 -7 -78 -15 -167 -24 -264 -34 -617 -24 -840 9 -196
7 -251 -5 -169 -3 23 -9 59 -12 82 -6 40 -6 40 -26 22 -15 -13 -22 -15 -25 -5
-3 7 -21 12 -42 12 -38 0 -38 -1 -45 -46 -4 -34 -16 -57 -41 -85 -25 -28 -35
-48 -35 -72 0 -37 15 -58 36 -50 8 3 40 -14 71 -37 52 -40 55 -44 38 -56 -12
-9 -32 -12 -57 -8 l-38 7 0 -55 c0 -37 13 -92 40 -173 40 -119 40 -121 29
-192 -11 -69 -7 -116 17 -177 4 -12 0 -16 -15 -16 -16 0 -21 6 -21 24 0 22 -8
27 -61 42 l-62 17 6 76 c4 50 1 99 -9 146 -33 151 -65 436 -71 611 -6 181 1
280 17 239 4 -11 11 -43 14 -71 9 -64 44 -128 74 -132 19 -3 22 1 22 27 0 16
-11 65 -25 108 -13 43 -29 109 -34 146 -6 43 -23 96 -47 143 l-37 76 6 198 c4
122 3 201 -3 205 -17 10 -110 -45 -129 -76 -11 -17 -27 -70 -36 -119 -15 -77
-16 -139 -12 -501 4 -328 8 -432 21 -499 9 -47 14 -101 11 -120 -3 -19 2 -75
11 -125 9 -51 18 -159 19 -250 2 -110 8 -176 19 -210 9 -27 16 -82 16 -121 0
-39 7 -94 15 -122 9 -29 27 -114 40 -190 13 -75 38 -186 55 -247 18 -60 38
-146 46 -190 10 -55 24 -96 48 -135 52 -86 57 -97 86 -204 91 -338 141 -487
205 -617 36 -73 83 -189 105 -259 23 -73 55 -148 75 -180 20 -30 44 -84 55
-120 11 -36 35 -90 54 -120 19 -30 39 -74 45 -97 12 -45 33 -63 62 -56 17 5
19 -1 19 -66 0 -69 2 -75 85 -239 78 -156 91 -174 187 -279 57 -61 130 -135
163 -164 33 -28 74 -71 90 -95 17 -24 49 -58 72 -75 36 -25 46 -41 59 -87 29
-105 37 -127 62 -167 48 -78 111 -125 167 -125 27 0 28 -3 26 -75 -2 -38 3
-58 21 -85 22 -32 29 -36 83 -41 71 -7 88 -15 140 -68 45 -47 70 -54 61 -17
-3 14 -3 32 0 40 17 44 74 -14 74 -76 0 -22 14 -82 31 -134 27 -79 37 -97 64
-114 43 -26 55 -25 55 5 0 23 3 25 50 25 40 0 51 -4 60 -21 6 -11 41 -40 78
-65 37 -25 92 -63 122 -85 39 -28 88 -50 170 -76 63 -19 135 -46 160 -58 26
-14 100 -79 175 -154 71 -72 137 -131 145 -131 8 0 28 -25 44 -55 31 -61 120
-149 181 -180 21 -11 56 -37 77 -58 23 -22 56 -42 82 -49 33 -9 46 -18 50 -34
8 -32 52 -60 120 -77 32 -9 65 -22 75 -31 22 -20 85 -46 111 -46 12 0 40 -13
63 -28 55 -37 99 -52 157 -52 43 0 52 -5 119 -64 69 -60 82 -67 257 -132 l184
-69 21 -42 c36 -75 97 -105 255 -129 64 -9 152 -32 216 -55 61 -21 124 -39
141 -39 18 0 93 -17 167 -39 173 -50 267 -65 347 -57 34 4 70 9 78 12 11 5 15
-1 15 -25 0 -28 5 -35 48 -54 43 -20 63 -22 262 -23 194 -1 222 -3 289 -24 63
-19 88 -22 175 -17 65 3 124 0 166 -9 161 -33 249 -45 300 -43 38 2 80 -6 135
-23 118 -38 197 -52 257 -43 29 4 69 6 88 4 19 -1 222 -2 450 -3 406 0 650 10
680 29 8 6 146 12 306 15 l290 5 76 38 76 37 171 0 171 0 0 -50 0 -50 -112 0
c-62 0 -151 -7 -198 -15 -47 -9 -123 -20 -170 -25 -47 -5 -119 -16 -160 -25
-254 -55 -280 -59 -400 -61 -69 -1 -215 -7 -325 -13 -110 -6 -213 -11 -230
-11 -16 1 -219 3 -449 6 l-419 5 -52 -26 c-29 -14 -61 -25 -72 -25 -28 0 -73
37 -73 61 0 17 -8 19 -92 19 -68 0 -110 6 -158 22 -57 19 -96 22 -325 27 -259
6 -260 7 -350 38 -89 32 -383 93 -444 93 -18 0 -112 27 -209 61 -97 33 -237
78 -311 100 l-134 39 -194 0 c-165 0 -193 -2 -193 -15 0 -8 9 -15 19 -15 23 0
388 -131 538 -193 61 -25 132 -48 163 -51 30 -3 114 -22 185 -42 109 -31 152
-38 265 -43 127 -6 141 -9 225 -44 75 -32 140 -47 390 -92 173 -32 330 -55
370 -55 39 0 104 -9 145 -20 65 -17 110 -20 335 -20 187 -1 278 -5 325 -15 79
-17 415 -20 475 -4 22 6 151 14 287 18 237 6 247 7 270 29 22 20 35 22 124 22
76 0 109 5 141 20 25 11 45 15 48 9 4 -5 22 -9 41 -9 27 0 34 4 34 20 0 32 43
53 92 46 118 -18 126 -18 152 -1 21 14 29 15 41 5 30 -25 132 -7 232 39 l91
43 22 -22 c20 -20 30 -22 94 -18 40 3 120 20 186 40 108 34 125 36 295 42 246
7 338 26 412 82 17 13 39 24 48 24 9 0 31 11 48 24 18 14 76 36 132 51 55 15
130 36 167 47 72 20 326 145 402 198 75 51 172 91 240 100 77 9 81 12 94 50
10 28 9 30 -14 30 l-26 0 31 39 c33 41 63 51 171 55 30 1 64 7 76 14 29 16 94
89 94 106 0 23 47 54 108 71 41 12 67 28 92 55 57 61 688 511 739 527 75 22
125 59 201 147 78 92 130 131 285 220 138 80 217 138 267 197 50 59 174 124
219 115 45 -9 102 14 142 56 31 33 37 36 37 18 0 -17 4 -19 28 -13 15 5 76 7
136 5 142 -3 201 13 249 68 45 54 56 95 68 263 15 235 42 303 149 380 52 38
64 53 110 144 71 144 115 263 150 405 17 67 30 129 30 137 0 8 7 23 16 33 10
10 21 41 25 70 7 43 16 59 53 94 55 53 71 97 56 153 -6 23 -17 41 -24 41 -8 0
-16 11 -18 24 -4 20 1 25 33 35 24 7 49 25 66 48 16 19 40 50 56 68 26 32 27
36 27 151 0 170 18 252 100 464 136 351 149 387 195 546 66 230 66 232 87 253
14 16 18 36 18 104 0 80 1 84 25 95 14 7 30 22 35 34 6 13 44 219 85 458 42
239 85 482 97 540 18 90 21 139 21 350 0 215 -2 258 -22 355 -12 61 -26 148
-30 195 -7 81 -21 122 -61 180 -15 23 -18 75 -23 535 l-6 510 -29 56 c-19 37
-51 146 -91 315 -35 142 -71 289 -82 325 -25 85 -24 97 5 105 35 8 50 52 44
133 -6 77 -37 155 -95 234 l-37 50 -8 142 c-4 78 -12 161 -17 186 -6 24 -11
68 -11 96 0 72 -100 433 -143 520 -19 37 -42 100 -50 139 -20 88 -29 108 -96
222 -55 91 -73 107 -131 114 -17 2 -26 10 -28 26 -2 12 -10 22 -18 22 -11 0
-14 15 -14 65 0 42 -4 65 -11 65 -8 0 -10 19 -6 64 6 64 6 65 -33 113 -26 31
-49 75 -66 128 -37 112 -63 160 -131 241 -46 55 -73 102 -122 215 -93 211
-105 233 -195 354 -95 127 -176 281 -176 333 0 28 -8 43 -40 74 -23 21 -45 38
-49 38 -5 0 -8 -15 -7 -32 1 -27 -3 -34 -21 -36 -13 -2 -23 -6 -23 -10 0 -9
45 -150 56 -176 7 -19 6 -19 -22 1 -16 12 -45 25 -64 30 -35 9 -35 9 -41 79
-9 115 -43 158 -212 268 -57 37 -113 82 -127 102 -52 74 -92 112 -138 132 -55
24 -97 66 -234 238 -53 66 -132 154 -176 195 -77 73 -108 97 -345 273 -78 58
-133 107 -165 148 -131 171 -163 198 -262 216 -25 5 -67 23 -95 40 -96 61
-214 157 -225 184 -16 37 -96 115 -140 138 -21 11 -59 24 -86 31 -27 7 -67 27
-89 44 -66 54 -139 94 -226 126 -45 16 -84 28 -86 25 -11 -11 102 -89 240
-164 174 -95 264 -161 391 -280 48 -46 127 -109 175 -140 151 -98 226 -172
174 -172 -10 0 -52 11 -93 24 -41 13 -109 33 -150 46 -43 13 -193 84 -352 166
-152 79 -284 144 -295 144 -10 0 -38 16 -62 35 -24 19 -60 39 -80 44 -106 28
-173 43 -341 76 -190 38 -222 50 -290 111 -19 17 -57 38 -85 47 -27 8 -90 33
-140 55 -49 22 -147 54 -218 71 -70 17 -223 63 -340 102 -136 46 -235 73 -276
77 -59 5 -65 7 -83 38 l-20 34 -125 0 -126 0 -43 35 c-23 19 -47 35 -53 35 -6
0 -40 -15 -76 -32 l-66 -33 -79 43 c-75 41 -81 42 -102 28 -32 -23 -77 -20
-142 9 -31 14 -66 25 -77 25 -12 0 -52 10 -91 21 -64 20 -75 20 -125 8 -46
-10 -63 -10 -101 1 -26 8 -98 16 -160 19 -109 6 -115 7 -138 34 -13 15 -24 36
-24 46 0 25 61 53 108 49 32 -3 38 -7 48 -38 11 -33 15 -35 58 -38 25 -2 46 1
46 6 0 22 -64 95 -95 108 -48 20 -76 18 -182 -13 -76 -22 -92 -30 -87 -42 4
-9 7 -27 8 -41 l1 -25 -122 -3 -122 -3 -93 47 c-147 74 -197 84 -415 84 -179
1 -187 2 -158 17 37 20 160 53 200 53 47 0 455 77 500 94 l40 15 -91 0 c-50 1
-113 5 -140 10 -83 15 -245 20 -324 9z m1082 -2498 c48 -14 97 -55 114 -97 11
-26 14 -133 14 -536 0 -502 0 -503 -22 -547 -13 -25 -38 -55 -57 -67 -33 -22
-42 -23 -250 -23 -246 0 -268 5 -308 76 -23 39 -23 40 -23 552 0 557 -1 551
56 604 16 14 45 31 64 36 47 14 365 15 412 2z m496 -435 c133 -53 242 -100
241 -104 0 -3 -44 -94 -97 -202 l-97 -197 -155 42 -155 41 -3 264 c-2 209 0
262 10 258 7 -2 122 -48 256 -102z m-1140 -162 l-3 -258 -150 -41 c-82 -23
-153 -39 -156 -35 -16 16 -190 393 -185 399 12 11 460 190 479 191 16 1 17
-16 15 -256z m-532 -323 c67 -140 126 -256 132 -258 6 -2 73 15 150 37 77 23
145 41 150 41 5 0 12 -25 15 -55 12 -119 101 -240 215 -293 l57 -27 260 0 260
0 62 29 c112 52 198 167 210 281 3 31 10 58 14 61 5 3 75 -13 155 -36 80 -23
150 -38 155 -33 4 4 62 120 128 258 66 137 125 251 131 253 17 6 248 -234 313
-324 161 -227 263 -464 312 -724 12 -64 33 -292 35 -372 0 -5 -796 -8 -1770
-8 l-1770 0 0 88 c0 355 132 737 362 1044 73 97 274 301 291 295 7 -2 67 -118
133 -257z m7129 157 c21 -26 36 -50 33 -52 -8 -8 -76 69 -83 95 -8 29 -5 26
50 -43z m-4139 -1554 c53 -28 107 -91 122 -142 18 -58 16 -408 -2 -459 -21
-59 -54 -100 -106 -130 l-45 -27 -1965 -3 c-1335 -2 -1976 0 -2001 7 -61 18
-118 67 -145 124 -23 50 -24 61 -24 260 0 219 5 246 50 304 29 37 82 72 127
82 22 5 864 8 1993 8 l1955 -2 41 -22z m-891 -1193 c43 -11 81 -22 84 -25 3
-3 -61 -72 -141 -153 l-146 -147 37 -120 37 -119 123 -39 124 -39 141 141 c78
78 144 141 148 141 15 0 40 -103 45 -190 10 -177 -49 -331 -176 -459 -148
-150 -362 -206 -575 -151 l-78 20 -589 -582 c-324 -320 -589 -584 -589 -588 0
-4 9 -42 20 -85 79 -309 -94 -625 -395 -721 -163 -52 -361 -26 -501 64 -113
74 -202 185 -244 305 -30 86 -38 247 -16 341 77 328 421 524 754 431 l64 -18
425 424 c233 233 496 499 584 591 l161 167 -21 83 c-112 443 283 841 724 728z
m-1983 -1 c29 -6 91 -29 138 -51 250 -119 380 -408 309 -687 l-21 -84 168
-168 169 -169 -158 -157 -157 -158 -168 168 -168 167 -78 -20 c-339 -87 -667
111 -746 449 -16 70 -8 249 15 315 l18 48 147 -147 147 -146 119 34 119 34 37
124 38 124 -147 147 -146 146 54 16 c30 8 63 17 74 19 40 9 185 7 237 -4z
m1445 -1831 l161 -161 59 16 c255 72 529 -25 671 -238 263 -392 -14 -923 -483
-927 -108 -2 -177 13 -270 58 -160 76 -278 221 -320 396 -22 87 -17 238 10
321 l19 58 -167 167 -167 167 152 153 c84 83 157 152 163 152 5 0 83 -73 172
-162z m3273 -2410 c126 -30 237 -114 283 -216 19 -42 22 -65 22 -202 l0 -155
-116 1 c-101 0 -120 3 -151 22 -46 29 -68 76 -68 146 0 47 -4 61 -29 88 -24
27 -36 32 -87 35 -68 5 -118 -19 -134 -63 -11 -29 -13 -194 -3 -244 10 -51 65
-96 249 -205 136 -80 185 -115 250 -180 121 -119 126 -137 122 -424 -3 -215
-4 -228 -27 -274 -73 -148 -242 -231 -471 -231 -179 0 -295 40 -396 135 -82
78 -98 124 -102 302 l-4 147 127 0 c141 0 174 -10 200 -60 8 -16 15 -52 15
-79 0 -63 15 -96 55 -121 73 -45 189 -31 235 27 18 23 20 41 20 171 0 138 -1
147 -26 189 -34 58 -112 114 -275 199 -157 81 -242 155 -287 250 -27 59 -27
60 -27 274 l0 215 28 53 c62 117 170 186 332 211 68 11 197 6 265 -11z m1484
-19 l26 -20 0 -180 0 -179 -90 0 c-104 0 -133 11 -174 65 l-27 36 -122 -3
-122 -3 -3 -229 c-1 -153 1 -233 8 -240 7 -7 84 -13 193 -16 l182 -5 0 -130 0
-130 -190 -5 -190 -5 -3 -254 c-2 -179 1 -258 9 -267 8 -10 41 -14 124 -14
122 0 123 0 154 63 24 48 71 67 169 67 l82 0 0 -189 0 -190 -26 -20 c-26 -21
-36 -21 -486 -21 l-460 0 4 114 3 113 43 47 42 46 -2 631 -3 631 -32 27 c-44
37 -53 67 -53 182 l0 99 459 0 c449 0 459 0 485 -21z m-9924 -13 c111 -48 181
-125 217 -241 15 -50 18 -93 17 -260 0 -221 -8 -268 -55 -327 -35 -45 -36 -51
-4 -72 65 -42 85 -139 85 -401 0 -227 -8 -283 -53 -368 -52 -100 -139 -157
-272 -177 -42 -6 -201 -9 -400 -8 l-330 3 -3 70 c-5 115 4 153 49 197 l39 39
0 632 0 632 -38 36 c-44 41 -52 70 -52 192 l0 78 378 -3 c345 -3 381 -5 422
-22z m970 -66 c0 -101 -13 -143 -60 -197 l-31 -34 3 -592 c3 -658 1 -637 70
-673 42 -22 124 -22 166 0 69 36 67 14 67 678 l0 597 -32 33 c-44 46 -53 76
-53 184 l0 94 250 0 250 0 0 -88 c0 -108 -11 -146 -52 -189 l-33 -34 -5 -652
-5 -652 -25 -50 c-32 -66 -112 -145 -180 -178 -63 -31 -186 -57 -265 -57 -81
0 -201 26 -271 59 -117 55 -192 146 -214 261 -6 32 -10 296 -10 658 l0 605
-40 43 -40 44 0 115 0 115 255 0 255 0 0 -90z m1330 6 c0 -99 -8 -126 -55
-178 l-35 -38 0 -638 0 -638 30 -29 c48 -46 60 -83 60 -184 l0 -91 -260 0
-260 0 0 96 c0 103 5 119 56 177 l34 37 0 635 0 635 -42 47 -43 46 -3 103 -4
104 261 0 261 0 0 -84z m700 -13 c0 -104 -9 -129 -58 -169 l-22 -19 2 -650 3
-650 113 -3 114 -3 26 32 c76 89 86 97 143 104 29 3 77 5 104 3 l50 -3 3 -155
c3 -181 -1 -214 -33 -246 l-24 -24 -472 0 -471 0 3 120 4 121 43 39 42 39 0
631 0 630 -35 38 c-47 52 -55 79 -55 178 l0 84 260 0 260 0 0 -97z m1428 87
c117 -27 196 -90 249 -198 l38 -76 3 -620 c4 -660 2 -686 -44 -778 -35 -69
-76 -111 -141 -145 -92 -49 -133 -53 -518 -53 l-355 0 0 95 c0 106 12 147 54
182 l26 23 0 640 0 640 -26 23 c-42 35 -54 76 -54 182 l0 95 363 0 c202 0 381
-5 405 -10z m1000 -100 l-3 -109 -37 -38 c-33 -34 -38 -45 -38 -86 0 -51 76
-1023 86 -1095 3 -24 7 -42 9 -40 3 3 173 813 254 1208 l46 225 40 20 c78 38
235 28 274 -19 10 -12 74 -331 212 -1058 40 -213 74 -386 76 -384 2 1 25 250
53 552 27 302 51 566 54 587 4 33 -1 44 -28 75 -51 57 -56 73 -56 176 l0 96
255 0 255 0 0 -96 c0 -104 -6 -121 -55 -174 -40 -42 -29 38 -120 -876 -36
-358 -70 -665 -76 -683 -6 -17 -19 -36 -29 -41 -11 -6 -107 -10 -217 -10 -210
0 -228 4 -253 50 -6 11 -55 236 -110 502 -112 543 -121 581 -126 575 -4 -4
-224 -1055 -224 -1070 0 -4 -11 -19 -25 -32 -24 -25 -24 -25 -235 -25 -209 0
-211 0 -235 24 -14 14 -26 40 -29 67 -3 24 -35 368 -71 764 l-65 719 -34 36
c-50 53 -56 70 -56 174 l0 96 256 0 256 0 -4 -110z m2152 15 c0 -103 -9 -132
-54 -174 l-26 -24 0 -645 0 -645 40 -43 40 -44 0 -105 0 -105 -255 0 -255 0 0
105 0 105 40 44 40 43 0 647 0 646 -26 23 c-44 38 -54 69 -54 172 l0 95 255 0
255 0 0 -95z m-2958 -2382 c115 -52 198 -172 206 -299 6 -94 -11 -162 -59
-233 -187 -281 -631 -165 -656 171 -9 122 29 223 115 300 77 70 135 89 257 85
65 -2 103 -9 137 -24z m804 12 c55 -16 142 -68 150 -89 7 -17 -73 -126 -92
-126 -7 0 -16 5 -20 11 -13 21 -109 59 -152 59 -57 0 -101 -20 -139 -63 -61
-70 -67 -166 -14 -249 34 -53 87 -82 152 -82 69 0 109 20 109 55 0 28 -2 29
-45 29 l-45 0 0 75 0 76 123 -3 122 -3 3 -144 c2 -101 -1 -148 -10 -158 -20
-24 -104 -62 -175 -79 -289 -68 -526 198 -427 478 61 175 268 270 460 213z
m-4296 -197 c0 -112 5 -221 10 -242 5 -22 22 -53 38 -69 57 -57 152 -33 179
44 8 22 12 110 12 252 l1 217 86 0 85 0 -3 -257 c-3 -292 -6 -303 -88 -377
-61 -55 -102 -70 -196 -70 -70 -1 -88 3 -139 29 -37 19 -72 46 -92 73 -55 73
-63 118 -63 374 l0 228 85 0 85 0 0 -202z m5105 122 l0 -75 -172 -3 -173 -2 0
-55 0 -54 108 -3 107 -3 3 -77 3 -78 -111 0 -110 0 0 -60 0 -60 173 -2 172 -3
0 -70 0 -70 -257 -3 -258 -2 0 343 c0 189 3 347 7 351 4 3 119 5 257 4 l251
-3 0 -75z m1973 21 c6 -107 16 -101 -178 -101 l-170 0 0 -55 0 -54 108 -3 107
-3 3 -77 3 -78 -111 0 -110 0 0 -60 0 -60 170 0 170 0 0 -75 0 -75 -257 2
-258 3 -3 315 c-1 173 0 330 3 348 l6 32 257 -2 257 -3 3 -54z m-7545 37 c126
-38 175 -196 86 -279 l-29 -27 24 -6 c33 -8 83 -68 95 -113 28 -101 -11 -187
-106 -234 -45 -22 -59 -23 -248 -24 l-200 0 -3 348 -2 347 171 0 c106 0 187
-5 212 -12z m1165 -335 l-3 -348 -82 -3 -83 -3 0 351 0 350 85 0 85 0 -2 -347z
m292 77 l0 -270 130 0 130 0 0 -80 0 -80 -217 2 -218 3 -3 348 -2 347 90 0 90
0 0 -270z m818 231 c74 -40 115 -84 151 -161 22 -46 26 -69 26 -145 0 -77 -4
-98 -28 -150 -36 -78 -95 -137 -171 -171 -58 -27 -70 -28 -238 -32 l-178 -4 0
352 0 352 188 -4 187 -3 63 -34z m1102 -36 l0 -75 -69 0 c-110 0 -101 26 -101
-281 l0 -270 -82 3 -83 3 -5 270 -5 270 -82 3 -83 3 0 74 0 75 255 0 255 0 0
-75z m2820 0 l0 -74 -82 -3 -83 -3 -5 -270 -5 -270 -82 -3 -83 -3 -2 273 -3
273 -82 3 -83 3 0 74 0 75 255 0 255 0 0 -75z m288 -72 l3 -143 124 0 125 0 0
145 0 145 85 0 85 0 0 -350 0 -351 -82 3 -83 3 -3 128 -3 127 -124 0 -125 0 0
-117 c0 -65 -4 -124 -9 -131 -5 -9 -30 -12 -87 -10 l-79 3 -3 348 -2 348 87
-3 88 -3 3 -142z m1577 131 c65 -23 120 -79 139 -145 31 -104 15 -173 -55
-241 l-48 -47 61 -117 c39 -74 57 -119 51 -125 -5 -5 -49 -9 -97 -7 l-88 3
-48 105 -48 105 -51 3 -50 3 -3 -108 -3 -108 -82 -3 -83 -3 0 351 0 350 178 0
c139 0 189 -4 227 -16z"/>
<path d="M7685 8151 l-130 -38 -38 -133 -39 -133 99 -99 98 -98 130 36 c72 20
132 38 134 40 7 7 71 239 71 260 0 13 -35 54 -94 112 -51 51 -95 91 -97 91 -2
-1 -62 -18 -134 -38z"/>
<path d="M9538 8093 l-98 -98 38 -135 38 -135 134 -38 134 -38 98 98 98 98
-38 134 -37 134 -135 38 c-74 21 -135 38 -135 39 0 0 -44 -44 -97 -97z"/>
<path d="M3808 5924 c-25 -8 -30 -49 -26 -252 2 -149 6 -185 18 -192 8 -5 48
-10 89 -10 70 0 74 1 107 34 l34 34 0 149 c0 159 -6 182 -51 216 -27 19 -133
32 -171 21z"/>
<path d="M3796 5168 c-13 -19 -16 -61 -16 -255 0 -127 4 -243 10 -257 9 -25
12 -26 94 -26 109 0 132 9 156 62 17 37 20 66 20 203 0 178 -9 225 -50 267
-27 26 -33 28 -114 28 -76 0 -86 -2 -100 -22z"/>
<path d="M8246 5904 c-9 -25 -7 -1247 3 -1262 6 -11 33 -13 109 -10 110 3 150
20 163 69 12 42 10 1063 -2 1118 -7 36 -19 58 -41 76 -27 23 -37 25 -128 25
-80 0 -99 -3 -104 -16z"/>
<path d="M8529 3582 c-142 -91 -107 -318 55 -363 106 -29 216 70 216 193 -1
112 -67 189 -168 196 -50 3 -63 0 -103 -26z"/>
<path d="M4603 3604 c-8 -3 -13 -25 -13 -55 l0 -49 78 0 c47 0 83 5 90 12 17
17 15 63 -3 78 -16 13 -131 24 -152 14z"/>
<path d="M4590 3260 l0 -70 85 0 c97 0 141 16 151 54 8 31 -11 65 -42 76 -14
6 -63 10 -110 10 l-84 0 0 -70z"/>
<path d="M6828 3594 c-5 -4 -8 -92 -8 -196 l0 -188 65 0 c78 0 122 16 157 58
37 44 51 95 45 159 -11 106 -70 160 -184 170 -37 3 -71 2 -75 -3z"/>
<path d="M12640 3515 l0 -85 85 0 c78 0 88 2 110 25 27 26 32 63 14 97 -16 30
-70 48 -144 48 l-65 0 0 -85z"/>
<path d="M9920 16370 c8 -5 24 -9 35 -9 l20 0 -20 9 c-11 5 -27 9 -35 9 -13 1
-13 0 0 -9z"/>
<path d="M10010 16341 c0 -5 7 -11 15 -15 8 -3 15 -1 15 3 0 5 -7 11 -15 15
-8 3 -15 1 -15 -3z"/>
<path d="M10230 16260 c14 -4 36 -8 50 -8 l25 0 -25 8 c-14 4 -36 8 -50 8
l-25 0 25 -8z"/>
<path d="M10318 16243 c7 -3 16 -2 19 1 4 3 -2 6 -13 5 -11 0 -14 -3 -6 -6z"/>
<path d="M10400 16246 c0 -3 22 -17 49 -32 35 -20 54 -39 66 -66 12 -29 22
-38 40 -38 21 0 95 36 95 46 0 10 -106 56 -171 74 -82 22 -79 22 -79 16z"/>
<path d="M9191 16176 l-22 -24 29 -21 c17 -11 34 -21 39 -21 16 0 41 33 48 63
7 26 6 27 -32 27 -29 0 -46 -7 -62 -24z"/>
<path d="M10775 16101 c11 -4 34 -11 50 -14 l30 -6 -30 14 c-16 8 -39 14 -50
14 l-20 0 20 -8z"/>
<path d="M10970 16022 c25 -16 61 -46 80 -66 42 -44 95 -61 148 -46 20 5 53
10 72 10 l35 0 -37 25 c-51 35 -120 60 -213 79 -44 8 -91 18 -105 22 -17 4
-11 -3 20 -24z"/>
<path d="M5260 15901 c0 -18 17 -20 36 -6 18 14 18 14 -8 15 -16 0 -28 -4 -28
-9z"/>
<path d="M11360 15885 c0 -11 125 -77 153 -81 25 -4 29 -2 17 6 -27 20 -170
83 -170 75z"/>
<path d="M11605 15764 c11 -9 34 -22 50 -30 l30 -15 -29 25 c-16 13 -39 27
-50 30 -21 5 -21 5 -1 -10z"/>
<path d="M11710 15716 c0 -1 23 -17 50 -34 41 -26 48 -28 40 -12 -14 26 -90
65 -90 46z"/>
<path d="M4235 15525 c-16 -13 -25 -24 -18 -25 7 0 25 11 40 25 36 32 17 32
-22 0z"/>
<path d="M4010 15440 c-18 -12 -2 -12 25 0 13 6 15 9 5 9 -8 0 -22 -4 -30 -9z"/>
<path d="M3731 15274 c-58 -42 -130 -90 -160 -107 -91 -50 -139 -85 -168 -124
-20 -27 -24 -38 -15 -41 8 -2 -12 -15 -43 -27 -86 -35 -132 -70 -169 -128 -19
-29 -30 -53 -26 -55 5 -2 31 8 59 22 28 14 65 26 82 26 61 0 149 69 149 116 0
57 130 192 261 272 79 48 166 122 143 122 -5 0 -56 -34 -113 -76z"/>
<path d="M3140 14715 c-10 -13 -9 -15 9 -15 12 0 21 6 21 15 0 8 -4 15 -9 15
-5 0 -14 -7 -21 -15z"/>
<path d="M3001 14688 c-40 -19 -69 -41 -80 -59 -12 -23 -23 -29 -49 -29 -49 0
-105 -33 -156 -93 -43 -50 -46 -58 -46 -111 0 -36 4 -56 12 -56 6 0 63 51 127
113 64 62 144 137 179 166 57 49 89 87 80 96 -2 2 -32 -10 -67 -27z"/>
<path d="M3240 14615 c0 -10 10 -15 33 -15 30 1 31 1 13 15 -25 19 -46 19 -46
0z"/>
<path d="M2890 14463 c-73 -50 -231 -213 -206 -213 2 0 24 16 48 36 23 20 54
41 68 47 24 11 94 63 125 93 18 19 20 54 2 54 -7 0 -24 -8 -37 -17z"/>
<path d="M2840 14309 c-7 -11 -10 -22 -8 -25 6 -6 48 26 48 37 0 17 -29 9 -40
-12z"/>
<path d="M2594 14286 c-28 -19 -82 -69 -121 -110 -42 -47 -77 -76 -90 -76 -31
0 -115 -48 -146 -83 -15 -18 -59 -75 -97 -129 -78 -107 -127 -153 -182 -170
-21 -6 -38 -17 -38 -25 0 -7 -11 -18 -24 -23 -27 -10 -50 -45 -41 -60 10 -17
-31 -93 -69 -129 -25 -25 -46 -62 -71 -126 -30 -78 -45 -101 -103 -160 -37
-39 -96 -115 -130 -170 -34 -55 -68 -108 -74 -117 -10 -13 -8 -24 7 -52 11
-20 23 -36 27 -36 19 0 178 235 178 263 0 69 53 138 159 209 47 32 128 105
210 190 74 77 162 160 195 185 70 52 99 83 126 133 10 19 51 71 90 115 39 44
91 112 116 150 25 39 60 82 76 97 29 26 30 28 16 50 -15 22 -14 25 19 66 19
23 31 42 26 42 -5 0 -31 -15 -59 -34z"/>
<path d="M2010 13463 c-41 -43 -43 -64 -5 -49 15 5 60 85 52 92 -2 3 -24 -17
-47 -43z"/>
<path d="M1753 13184 c-53 -26 -63 -40 -41 -62 22 -22 56 -13 82 21 25 32 35
68 19 66 -5 0 -32 -12 -60 -25z"/>
<path d="M1499 12824 l-24 -26 24 4 c14 2 27 13 32 26 11 29 -2 28 -32 -4z"/>
<path d="M1463 12156 c-10 -13 -26 -41 -35 -62 -9 -22 -28 -67 -42 -100 -28
-66 -34 -108 -14 -102 17 6 148 224 148 246 0 18 -18 42 -31 42 -4 0 -16 -11
-26 -24z"/>
<path d="M16939 8461 c-23 -23 -27 -37 -33 -117 -7 -91 6 -184 26 -184 21 0
42 76 41 154 -1 70 1 81 23 103 27 27 30 43 12 61 -18 18 -40 13 -69 -17z"/>
<path d="M17130 8403 c0 -28 3 -34 10 -23 13 20 13 60 0 60 -5 0 -10 -17 -10
-37z"/>
<path d="M17047 8384 c-4 -4 -7 -32 -7 -63 l0 -56 25 30 c18 20 25 38 23 60
-3 28 -25 44 -41 29z"/>
<path d="M17084 8114 c-9 -21 -25 -49 -36 -61 -11 -12 -17 -26 -14 -31 8 -14
-4 -42 -18 -42 -14 -1 -83 -144 -91 -191 -5 -25 -2 -40 8 -50 20 -21 7 -267
-15 -283 -8 -6 -29 -36 -46 -67 -29 -51 -32 -62 -30 -140 1 -66 -3 -94 -20
-131 -24 -56 -46 -61 -83 -22 -27 29 -27 35 -14 271 8 134 3 182 -15 153 -6
-8 -10 -47 -10 -87 0 -80 -10 -116 -44 -153 -13 -14 -23 -32 -24 -40 0 -8 -5
-36 -13 -61 -11 -43 -11 -49 9 -84 12 -20 20 -41 17 -46 -9 -13 -49 -11 -63 3
-9 9 -12 -5 -12 -65 0 -75 0 -77 25 -77 22 0 25 -4 25 -32 0 -18 -9 -62 -21
-98 -14 -44 -23 -113 -29 -215 -4 -82 -13 -163 -19 -178 -6 -16 -11 -51 -11
-79 0 -54 -41 -170 -110 -308 -20 -41 -68 -167 -106 -280 -59 -178 -68 -213
-65 -267 3 -75 -17 -125 -86 -219 -40 -55 -47 -70 -44 -104 6 -87 -32 -203
-93 -283 -27 -36 -36 -57 -36 -86 0 -22 5 -43 11 -46 16 -11 88 42 111 81 19
32 24 35 53 30 22 -5 36 -2 45 9 19 23 49 18 62 -10 8 -19 8 -41 -1 -92 -7
-38 -11 -84 -9 -103 3 -33 5 -35 38 -35 33 0 36 3 60 62 24 61 26 63 61 63 41
0 84 29 95 62 3 12 33 69 65 127 72 130 133 279 142 345 4 27 21 73 37 103 24
42 30 65 30 111 0 52 4 65 39 113 53 75 117 206 125 257 4 24 18 76 32 115 14
40 29 107 35 150 5 43 19 103 31 134 16 44 19 69 15 117 -6 61 8 146 24 146 4
0 14 -9 22 -20 14 -20 16 -17 41 50 21 58 26 87 24 153 0 45 -3 69 -5 52 -3
-21 -15 -37 -40 -53 -20 -12 -37 -21 -38 -20 -1 2 0 29 3 61 4 55 6 59 44 78
42 22 58 50 58 107 0 20 7 69 15 107 8 39 15 97 15 129 0 70 44 224 65 233 17
6 20 39 5 48 -15 9 -12 46 10 92 l19 42 -23 43 c-28 54 -97 108 -137 108 -26
0 -29 4 -29 30 0 25 4 30 25 30 38 0 49 31 30 85 -8 25 -15 52 -15 60 0 8 -14
30 -32 50 -31 36 -31 36 -15 71 21 43 22 74 3 74 -8 0 -22 10 -30 22 -15 22
-16 21 -32 -18z"/>
<path d="M1657 3223 c-4 -5 8 -23 25 -39 21 -20 27 -23 20 -9 -20 38 -39 58
-45 48z"/>
<path d="M2170 2625 c0 -15 129 -159 136 -153 1 2 -5 26 -14 55 -12 37 -23 53
-39 57 -12 3 -35 18 -52 32 -26 21 -31 23 -31 9z"/>
<path d="M2770 2222 c0 -23 19 -42 42 -42 21 0 24 30 6 48 -18 18 -48 15 -48
-6z"/>
</g>
</svg>
